<!--?xml version="1.0" encoding="UTF-8" standalone="no"?-->

<!-- Generated by graphviz version 2.40.1 (20161225.0304)
 -->
<!-- Title: G Pages: 1 -->
<svg width="278pt" height="260pt" viewBox="0.00 0.00 278.00 260.00" xmlns="http://www.w3.org/2000/svg" xmlns:xlink="http://www.w3.org/1999/xlink">
<g id="graph0" class="graph" transform="scale(1 1) rotate(0) translate(4 256)">
<title>G</title>
<polygon fill="#ffffff" stroke="transparent" points="-4,4 -4,-256 274,-256 274,4 -4,4"></polygon>
<!-- 0 -->
<g id="node1" class="node">
<title>0</title>
<polygon fill="none" stroke="#ffb03b" points="54,-252 0,-252 0,-216 54,-216 54,-252"></polygon>
<text text-anchor="middle" x="27" y="-229.8" font-family="Courier,monospace" font-size="14.00" fill="#000000">0</text>
</g>
<!-- 1 -->
<g id="node2" class="node">
<title>1</title>
<polygon fill="none" stroke="#8a0918" points="198,-252 144,-252 144,-216 198,-216 198,-252"></polygon>
<text text-anchor="middle" x="171" y="-229.8" font-family="Courier,monospace" font-size="14.00" fill="#000000">1</text>
</g>
<!-- 4 -->
<g id="node7" class="node">
<title>4</title>
<polygon fill="none" stroke="#5a5241" points="119.2315,-144 150.7685,-144 162,-180 108,-180 119.2315,-144"></polygon>
<text text-anchor="middle" x="135" y="-157.8" font-family="Courier,monospace" font-size="14.00" fill="#000000">4</text>
</g>
<!-- 1&#45;&gt;4 -->
<g id="edge3" class="edge">
<title>1-&gt;4</title>
<path fill="none" stroke="#5a5241" d="M161.9157,-215.8314C156.5,-205 149.6438,-191.2876 144.2066,-180.4133"></path>
</g>
<!-- 5 -->
<g id="node8" class="node">
<title>5</title>
<polygon fill="none" stroke="#5a5241" points="191.2315,-144 222.7685,-144 234,-180 180,-180 191.2315,-144"></polygon>
<text text-anchor="middle" x="207" y="-157.8" font-family="Courier,monospace" font-size="14.00" fill="#000000">5</text>
</g>
<!-- 1&#45;&gt;5 -->
<g id="edge5" class="edge">
<title>1-&gt;5</title>
<path fill="none" stroke="#5a5241" d="M180.0843,-215.8314C185.5,-205 192.3562,-191.2876 197.7934,-180.4133"></path>
</g>
<!-- 2 -->
<g id="node3" class="node">
<title>2</title>
<polygon fill="none" stroke="#8a0918" points="126,-252 72,-252 72,-216 126,-216 126,-252"></polygon>
<text text-anchor="middle" x="99" y="-229.8" font-family="Courier,monospace" font-size="14.00" fill="#000000">2</text>
</g>
<!-- 2&#45;&gt;4 -->
<g id="edge4" class="edge">
<title>2-&gt;4</title>
<path fill="none" stroke="#5a5241" d="M108.0843,-215.8314C113.5,-205 120.3562,-191.2876 125.7934,-180.4133"></path>
</g>
<!-- 3 -->
<g id="node4" class="node">
<title>3</title>
<polygon fill="none" stroke="#8a0918" points="270,-252 216,-252 216,-216 270,-216 270,-252"></polygon>
<text text-anchor="middle" x="243" y="-229.8" font-family="Courier,monospace" font-size="14.00" fill="#000000">3</text>
</g>
<!-- 3&#45;&gt;5 -->
<g id="edge6" class="edge">
<title>3-&gt;5</title>
<path fill="none" stroke="#5a5241" d="M233.9157,-215.8314C228.5,-205 221.6438,-191.2876 216.2066,-180.4133"></path>
</g>
<!-- 9 -->
<g id="node5" class="node">
<title>9</title>
<polygon fill="none" stroke="#accfcc" points="162,-36 108,-36 108,0 162,0 162,-36"></polygon>
<text text-anchor="middle" x="135" y="-13.8" font-family="Courier,monospace" font-size="14.00" fill="#000000">9</text>
</g>
<!-- 10 -->
<g id="node6" class="node">
<title>10</title>
<polygon fill="none" stroke="#accfcc" points="234,-36 180,-36 180,0 234,0 234,-36"></polygon>
<text text-anchor="middle" x="207" y="-13.8" font-family="Courier,monospace" font-size="14.00" fill="#000000">10</text>
</g>
<!-- 6 -->
<g id="node9" class="node">
<title>6</title>
<polygon fill="none" stroke="#5a5241" points="155.2315,-72 186.7685,-72 198,-108 144,-108 155.2315,-72"></polygon>
<text text-anchor="middle" x="171" y="-85.8" font-family="Courier,monospace" font-size="14.00" fill="#000000">6</text>
</g>
<!-- 4&#45;&gt;6 -->
<g id="edge7" class="edge">
<title>4-&gt;6</title>
<path fill="none" stroke="#5a5241" d="M144.0843,-143.8314C148.3576,-135.2848 153.5278,-124.9443 158.1901,-115.6198"></path>
<ellipse fill="none" stroke="#5a5241" cx="160.0045" cy="-111.991" rx="4" ry="4"></ellipse>
</g>
<!-- 5&#45;&gt;6 -->
<g id="edge8" class="edge">
<title>5-&gt;6</title>
<path fill="none" stroke="#5a5241" d="M197.9157,-143.8314C193.6424,-135.2848 188.4722,-124.9443 183.8099,-115.6198"></path>
<ellipse fill="none" stroke="#5a5241" cx="181.9955" cy="-111.991" rx="4" ry="4"></ellipse>
</g>
<!-- 6&#45;&gt;9 -->
<g id="edge1" class="edge">
<title>6-&gt;9</title>
<path fill="none" stroke="#5a5241" d="M161.9157,-71.8314C157.6424,-63.2848 152.4722,-52.9443 147.8099,-43.6198"></path>
<ellipse fill="none" stroke="#5a5241" cx="145.9955" cy="-39.991" rx="4" ry="4"></ellipse>
</g>
<!-- 6&#45;&gt;10 -->
<g id="edge2" class="edge">
<title>6-&gt;10</title>
<path fill="none" stroke="#5a5241" d="M180.0843,-71.8314C184.3576,-63.2848 189.5278,-52.9443 194.1901,-43.6198"></path>
<ellipse fill="none" stroke="#5a5241" cx="196.0045" cy="-39.991" rx="4" ry="4"></ellipse>
</g>
</g>
</svg>
