<!--?xml version="1.0" encoding="UTF-8" standalone="no"?-->

<!-- Generated by graphviz version 2.40.1 (20161225.0304)
 -->
<!-- Title: G Pages: 1 -->
<svg width="278pt" height="260pt" viewBox="0.00 0.00 278.00 260.00" xmlns="http://www.w3.org/2000/svg" xmlns:xlink="http://www.w3.org/1999/xlink">
<g id="graph0" class="graph" transform="scale(1 1) rotate(0) translate(4 256)">
<title>G</title>
<polygon fill="#ffffff" stroke="transparent" points="-4,4 -4,-256 274,-256 274,4 -4,4"></polygon>
<!-- 0 -->
<g id="node1" class="node">
<title>0</title>
<polygon fill="none" stroke="#ffb03b" points="54,-252 0,-252 0,-216 54,-216 54,-252"></polygon>
<text text-anchor="middle" x="27" y="-229.8" font-family="Courier,monospace" font-size="14.00" fill="#000000">0</text>
</g>
<!-- 1 -->
<g id="node2" class="node">
<title>1</title>
<polygon fill="none" stroke="#8a0918" points="126,-252 72,-252 72,-216 126,-216 126,-252"></polygon>
<text text-anchor="middle" x="99" y="-229.8" font-family="Courier,monospace" font-size="14.00" fill="#000000">1</text>
</g>
<!-- 4 -->
<g id="node7" class="node">
<title>4</title>
<polygon fill="none" stroke="#5a5241" points="155.2315,-144 186.7685,-144 198,-180 144,-180 155.2315,-144"></polygon>
<text text-anchor="middle" x="171" y="-157.8" font-family="Courier,monospace" font-size="14.00" fill="#000000">4</text>
</g>
<!-- 1&#45;&gt;4 -->
<g id="edge3" class="edge">
<title>1-&gt;4</title>
<path fill="none" stroke="#5a5241" d="M117.1686,-215.8314C128,-205 141.7124,-191.2876 152.5867,-180.4133"></path>
</g>
<!-- 5 -->
<g id="node8" class="node">
<title>5</title>
<polygon fill="none" stroke="#5a5241" points="45.2315,-144 76.7685,-144 88,-180 34,-180 45.2315,-144"></polygon>
<text text-anchor="middle" x="61" y="-157.8" font-family="Courier,monospace" font-size="14.00" fill="#000000">5</text>
</g>
<!-- 1&#45;&gt;5 -->
<g id="edge5" class="edge">
<title>1-&gt;5</title>
<path fill="none" stroke="#5a5241" d="M89.411,-215.8314C83.6945,-205 76.4573,-191.2876 70.7181,-180.4133"></path>
</g>
<!-- 8 -->
<g id="node11" class="node">
<title>8</title>
<polygon fill="none" stroke="#5a5241" points="199.2315,-72 230.7685,-72 242,-108 188,-108 199.2315,-72"></polygon>
<text text-anchor="middle" x="215" y="-85.8" font-family="Courier,monospace" font-size="14.00" fill="#000000">8</text>
</g>
<!-- 1&#45;&gt;8 -->
<g id="edge12" class="edge">
<title>1-&gt;8</title>
<path fill="none" stroke="#5a5241" d="M102.8928,-215.8068C107.7713,-196.3758 117.6722,-165.4814 135,-144 149.7289,-125.7404 172.2738,-111.3024 189.681,-101.967"></path>
</g>
<!-- 2 -->
<g id="node3" class="node">
<title>2</title>
<polygon fill="none" stroke="#8a0918" points="270,-252 216,-252 216,-216 270,-216 270,-252"></polygon>
<text text-anchor="middle" x="243" y="-229.8" font-family="Courier,monospace" font-size="14.00" fill="#000000">2</text>
</g>
<!-- 2&#45;&gt;4 -->
<g id="edge4" class="edge">
<title>2-&gt;4</title>
<path fill="none" stroke="#5a5241" d="M224.8314,-215.8314C214,-205 200.2876,-191.2876 189.4133,-180.4133"></path>
</g>
<!-- 7 -->
<g id="node10" class="node">
<title>7</title>
<polygon fill="none" stroke="#5a5241" points="227.2315,-144 258.7685,-144 270,-180 216,-180 227.2315,-144"></polygon>
<text text-anchor="middle" x="243" y="-157.8" font-family="Courier,monospace" font-size="14.00" fill="#000000">7</text>
</g>
<!-- 2&#45;&gt;7 -->
<g id="edge9" class="edge">
<title>2-&gt;7</title>
<path fill="none" stroke="#5a5241" d="M243,-215.8314C243,-207.5386 243,-197.557 243,-188.4533"></path>
<ellipse fill="none" stroke="#5a5241" cx="243" cy="-184.4133" rx="4" ry="4"></ellipse>
</g>
<!-- 3 -->
<g id="node4" class="node">
<title>3</title>
<polygon fill="none" stroke="#8a0918" points="198,-252 144,-252 144,-216 198,-216 198,-252"></polygon>
<text text-anchor="middle" x="171" y="-229.8" font-family="Courier,monospace" font-size="14.00" fill="#000000">3</text>
</g>
<!-- 3&#45;&gt;5 -->
<g id="edge6" class="edge">
<title>3-&gt;5</title>
<path fill="none" stroke="#5a5241" d="M143.809,-216.2022C126.7585,-205.0419 104.8691,-190.7143 87.8782,-179.593"></path>
</g>
<!-- 3&#45;&gt;7 -->
<g id="edge10" class="edge">
<title>3-&gt;7</title>
<path fill="none" stroke="#5a5241" d="M189.1686,-215.8314C198.1383,-206.8617 209.0839,-195.9161 218.7572,-186.2428"></path>
<ellipse fill="none" stroke="#5a5241" cx="221.7583" cy="-183.2417" rx="4" ry="4"></ellipse>
</g>
<!-- 9 -->
<g id="node5" class="node">
<title>9</title>
<polygon fill="none" stroke="#accfcc" points="143,-36 89,-36 89,0 143,0 143,-36"></polygon>
<text text-anchor="middle" x="116" y="-13.8" font-family="Courier,monospace" font-size="14.00" fill="#000000">9</text>
</g>
<!-- 10 -->
<g id="node6" class="node">
<title>10</title>
<polygon fill="none" stroke="#accfcc" points="242,-36 188,-36 188,0 242,0 242,-36"></polygon>
<text text-anchor="middle" x="215" y="-13.8" font-family="Courier,monospace" font-size="14.00" fill="#000000">10</text>
</g>
<!-- 6 -->
<g id="node9" class="node">
<title>6</title>
<polygon fill="none" stroke="#5a5241" points="100.2315,-72 131.7685,-72 143,-108 89,-108 100.2315,-72"></polygon>
<text text-anchor="middle" x="116" y="-85.8" font-family="Courier,monospace" font-size="14.00" fill="#000000">6</text>
</g>
<!-- 4&#45;&gt;6 -->
<g id="edge7" class="edge">
<title>4-&gt;6</title>
<path fill="none" stroke="#5a5241" d="M157.1212,-143.8314C150.3986,-135.0309 142.2231,-124.3285 134.9381,-114.7917"></path>
<ellipse fill="none" stroke="#5a5241" cx="132.4939" cy="-111.592" rx="4" ry="4"></ellipse>
</g>
<!-- 5&#45;&gt;6 -->
<g id="edge8" class="edge">
<title>5-&gt;6</title>
<path fill="none" stroke="#5a5241" d="M74.8788,-143.8314C81.6014,-135.0309 89.7769,-124.3285 97.0619,-114.7917"></path>
<ellipse fill="none" stroke="#5a5241" cx="99.5061" cy="-111.592" rx="4" ry="4"></ellipse>
</g>
<!-- 6&#45;&gt;9 -->
<g id="edge1" class="edge">
<title>6-&gt;9</title>
<path fill="none" stroke="#5a5241" d="M116,-71.8314C116,-63.5386 116,-53.557 116,-44.4533"></path>
<ellipse fill="none" stroke="#5a5241" cx="116" cy="-40.4133" rx="4" ry="4"></ellipse>
</g>
<!-- 7&#45;&gt;8 -->
<g id="edge11" class="edge">
<title>7-&gt;8</title>
<path fill="none" stroke="#5a5241" d="M235.9344,-143.8314C232.6436,-135.3694 228.669,-125.1489 225.0711,-115.8971"></path>
<ellipse fill="none" stroke="#5a5241" cx="223.6105" cy="-112.1413" rx="4" ry="4"></ellipse>
</g>
<!-- 8&#45;&gt;10 -->
<g id="edge2" class="edge">
<title>8-&gt;10</title>
<path fill="none" stroke="#5a5241" d="M215,-71.8314C215,-61 215,-47.2876 215,-36.4133"></path>
</g>
</g>
</svg>
