<!--?xml version="1.0" encoding="UTF-8" standalone="no"?-->

<!-- Generated by graphviz version 2.40.1 (20161225.0304)
 -->
<!-- Title: G Pages: 1 -->
<svg width="248pt" height="620pt" viewBox="0.00 0.00 247.99 620.00" xmlns="http://www.w3.org/2000/svg" xmlns:xlink="http://www.w3.org/1999/xlink">
<g id="graph0" class="graph" transform="scale(1 1) rotate(0) translate(4 616)">
<title>G</title>
<polygon fill="#ffffff" stroke="transparent" points="-4,4 -4,-616 243.9936,-616 243.9936,4 -4,4"></polygon>
<!-- 0 -->
<g id="node1" class="node">
<title>0</title>
<polygon fill="none" stroke="#ffb03b" points="239.9936,-612 185.9936,-612 185.9936,-576 239.9936,-576 239.9936,-612"></polygon>
<text text-anchor="middle" x="212.9936" y="-589.8" font-family="Courier,monospace" font-size="14.00" fill="#000000">0</text>
</g>
<!-- 5 -->
<g id="node11" class="node">
<title>5</title>
<polygon fill="none" stroke="#5a5241" points="197.2252,-360 228.7621,-360 239.9936,-396 185.9936,-396 197.2252,-360"></polygon>
<text text-anchor="middle" x="212.9936" y="-373.8" font-family="Courier,monospace" font-size="14.00" fill="#000000">5</text>
</g>
<!-- 0&#45;&gt;5 -->
<g id="edge14" class="edge">
<title>0-&gt;5</title>
<path fill="none" stroke="#5a5241" d="M218.4675,-575.9324C226.8131,-545.912 240.8611,-483.9192 231.9936,-432 229.8854,-419.6564 225.2497,-406.3821 221.0853,-396.0835"></path>
</g>
<!-- 4 -->
<g id="node12" class="node">
<title>4</title>
<polygon fill="none" stroke="#5a5241" points="180.2252,-432 211.7621,-432 222.9936,-468 168.9936,-468 180.2252,-432"></polygon>
<text text-anchor="middle" x="195.9936" y="-445.8" font-family="Courier,monospace" font-size="14.00" fill="#000000">4</text>
</g>
<!-- 0&#45;&gt;4 -->
<g id="edge17" class="edge">
<title>0-&gt;4</title>
<path fill="none" stroke="#5a5241" d="M210.8406,-575.7623C207.8643,-550.5518 202.4761,-504.9103 199.0743,-476.0952"></path>
<ellipse fill="none" stroke="#5a5241" cx="198.5982" cy="-472.062" rx="4" ry="4"></ellipse>
</g>
<!-- 3 -->
<g id="node15" class="node">
<title>3</title>
<polygon fill="none" stroke="#5a5241" points="142.2252,-504 173.7621,-504 184.9936,-540 130.9936,-540 142.2252,-504"></polygon>
<text text-anchor="middle" x="157.9936" y="-517.8" font-family="Courier,monospace" font-size="14.00" fill="#000000">3</text>
</g>
<!-- 0&#45;&gt;3 -->
<g id="edge22" class="edge">
<title>0-&gt;3</title>
<path fill="none" stroke="#5a5241" d="M199.1148,-575.8314C190.8409,-565 180.3661,-551.2876 172.0593,-540.4133"></path>
</g>
<!-- 1 -->
<g id="node2" class="node">
<title>1</title>
<polygon fill="none" stroke="#8a0918" points="165.9936,-612 111.9936,-612 111.9936,-576 165.9936,-576 165.9936,-612"></polygon>
<text text-anchor="middle" x="138.9936" y="-589.8" font-family="Courier,monospace" font-size="14.00" fill="#000000">1</text>
</g>
<!-- 1&#45;&gt;3 -->
<g id="edge23" class="edge">
<title>1-&gt;3</title>
<path fill="none" stroke="#5a5241" d="M143.7881,-575.8314C146.6464,-565 150.265,-551.2876 153.1346,-540.4133"></path>
</g>
<!-- 7 -->
<g id="node16" class="node">
<title>7</title>
<polygon fill="none" stroke="#5a5241" points="70.2252,-432 101.7621,-432 112.9936,-468 58.9936,-468 70.2252,-432"></polygon>
<text text-anchor="middle" x="85.9936" y="-445.8" font-family="Courier,monospace" font-size="14.00" fill="#000000">7</text>
</g>
<!-- 1&#45;&gt;7 -->
<g id="edge24" class="edge">
<title>1-&gt;7</title>
<path fill="none" stroke="#5a5241" d="M132.2811,-575.7623C122.0864,-548.0633 102.8139,-495.7005 92.6516,-468.0896"></path>
</g>
<!-- 2 -->
<g id="node3" class="node">
<title>2</title>
<polygon fill="none" stroke="#8a0918" points="91.9936,-612 37.9936,-612 37.9936,-576 91.9936,-576 91.9936,-612"></polygon>
<text text-anchor="middle" x="64.9936" y="-589.8" font-family="Courier,monospace" font-size="14.00" fill="#000000">2</text>
</g>
<!-- 2&#45;&gt;7 -->
<g id="edge25" class="edge">
<title>2-&gt;7</title>
<path fill="none" stroke="#5a5241" d="M67.6533,-575.7623C71.3298,-550.5518 77.9859,-504.9103 82.1881,-476.0952"></path>
<ellipse fill="none" stroke="#5a5241" cx="82.7783" cy="-472.0477" rx="4" ry="4"></ellipse>
</g>
<!-- 15 -->
<g id="node4" class="node">
<title>15</title>
<polygon fill="none" stroke="#accfcc" points="170.9936,-36 116.9936,-36 116.9936,0 170.9936,0 170.9936,-36"></polygon>
<text text-anchor="middle" x="143.9936" y="-13.8" font-family="Courier,monospace" font-size="14.00" fill="#000000">15</text>
</g>
<!-- 14 -->
<g id="node5" class="node">
<title>14</title>
<polygon fill="none" stroke="#5a5241" points="125.3125,-72 162.6747,-72 175.9809,-108 112.0064,-108 125.3125,-72"></polygon>
<text text-anchor="middle" x="143.9936" y="-85.8" font-family="Courier,monospace" font-size="14.00" fill="#000000">14</text>
</g>
<!-- 14&#45;&gt;15 -->
<g id="edge1" class="edge">
<title>14-&gt;15</title>
<path fill="none" stroke="#5a5241" d="M143.9936,-71.8314C143.9936,-61 143.9936,-47.2876 143.9936,-36.4133"></path>
</g>
<!-- 13 -->
<g id="node6" class="node">
<title>13</title>
<polygon fill="none" stroke="#5a5241" points="95.3125,-144 132.6747,-144 145.9809,-180 82.0064,-180 95.3125,-144"></polygon>
<text text-anchor="middle" x="113.9936" y="-157.8" font-family="Courier,monospace" font-size="14.00" fill="#000000">13</text>
</g>
<!-- 13&#45;&gt;14 -->
<g id="edge3" class="edge">
<title>13-&gt;14</title>
<path fill="none" stroke="#5a5241" d="M121.5639,-143.8314C125.0897,-135.3694 129.3482,-125.1489 133.2032,-115.8971"></path>
<ellipse fill="none" stroke="#5a5241" cx="134.7829" cy="-112.1056" rx="4" ry="4"></ellipse>
</g>
<!-- 10 -->
<g id="node7" class="node">
<title>10</title>
<polygon fill="none" stroke="#5a5241" points="95.3125,-216 132.6747,-216 145.9809,-252 82.0064,-252 95.3125,-216"></polygon>
<text text-anchor="middle" x="113.9936" y="-229.8" font-family="Courier,monospace" font-size="14.00" fill="#000000">10</text>
</g>
<!-- 10&#45;&gt;13 -->
<g id="edge4" class="edge">
<title>10-&gt;13</title>
<path fill="none" stroke="#5a5241" d="M113.9936,-215.8314C113.9936,-207.5386 113.9936,-197.557 113.9936,-188.4533"></path>
<ellipse fill="none" stroke="#5a5241" cx="113.9937" cy="-184.4133" rx="4" ry="4"></ellipse>
</g>
<!-- 11 -->
<g id="node8" class="node">
<title>11</title>
<polygon fill="none" stroke="#5a5241" points="177.3125,-216 214.6747,-216 227.9809,-252 164.0064,-252 177.3125,-216"></polygon>
<text text-anchor="middle" x="195.9936" y="-229.8" font-family="Courier,monospace" font-size="14.00" fill="#000000">11</text>
</g>
<!-- 11&#45;&gt;14 -->
<g id="edge2" class="edge">
<title>11-&gt;14</title>
<path fill="none" stroke="#5a5241" d="M189.4078,-215.7623C179.4054,-188.0633 160.4966,-135.7005 150.526,-108.0896"></path>
</g>
<!-- 12 -->
<g id="node9" class="node">
<title>12</title>
<polygon fill="none" stroke="#5a5241" points="13.3125,-216 50.6747,-216 63.9809,-252 .0064,-252 13.3125,-216"></polygon>
<text text-anchor="middle" x="31.9936" y="-229.8" font-family="Courier,monospace" font-size="14.00" fill="#000000">12</text>
</g>
<!-- 12&#45;&gt;13 -->
<g id="edge5" class="edge">
<title>12-&gt;13</title>
<path fill="none" stroke="#5a5241" d="M51.4265,-216.937C64.0243,-205.8755 80.4199,-191.4794 93.2668,-180.1992"></path>
</g>
<!-- 6 -->
<g id="node10" class="node">
<title>6</title>
<polygon fill="none" stroke="#5a5241" points="125.2252,-288 156.7621,-288 167.9936,-324 113.9936,-324 125.2252,-288"></polygon>
<text text-anchor="middle" x="140.9936" y="-301.8" font-family="Courier,monospace" font-size="14.00" fill="#000000">6</text>
</g>
<!-- 6&#45;&gt;10 -->
<g id="edge6" class="edge">
<title>6-&gt;10</title>
<path fill="none" stroke="#5a5241" d="M134.1804,-287.8314C130.1186,-277 124.9765,-263.2876 120.8986,-252.4133"></path>
</g>
<!-- 6&#45;&gt;11 -->
<g id="edge8" class="edge">
<title>6-&gt;11</title>
<path fill="none" stroke="#5a5241" d="M154.8724,-287.8314C163.1464,-277 173.6212,-263.2876 181.9279,-252.4133"></path>
</g>
<!-- 6&#45;&gt;12 -->
<g id="edge10" class="edge">
<title>6-&gt;12</title>
<path fill="none" stroke="#5a5241" d="M122.9945,-294.1107C105.701,-282.6874 79.3328,-265.2699 59.4242,-252.1193"></path>
</g>
<!-- 5&#45;&gt;6 -->
<g id="edge12" class="edge">
<title>5-&gt;6</title>
<path fill="none" stroke="#5a5241" d="M196.6557,-361.6621C187.2912,-352.2976 175.3663,-340.3726 164.9581,-329.9644"></path>
<ellipse fill="none" stroke="#5a5241" cx="161.8644" cy="-326.8708" rx="4" ry="4"></ellipse>
</g>
<!-- 4&#45;&gt;5 -->
<g id="edge15" class="edge">
<title>4-&gt;5</title>
<path fill="none" stroke="#5a5241" d="M200.2834,-431.8314C202.8408,-421 206.0785,-407.2876 208.646,-396.4133"></path>
</g>
<!-- 8 -->
<g id="node13" class="node">
<title>8</title>
<polygon fill="none" stroke="#5a5241" points="125.2252,-360 156.7621,-360 167.9936,-396 113.9936,-396 125.2252,-360"></polygon>
<text text-anchor="middle" x="140.9936" y="-373.8" font-family="Courier,monospace" font-size="14.00" fill="#000000">8</text>
</g>
<!-- 8&#45;&gt;11 -->
<g id="edge9" class="edge">
<title>8-&gt;11</title>
<path fill="none" stroke="#5a5241" d="M155.8789,-359.5185C163.2398,-349.5296 171.6656,-336.6716 176.9936,-324 186.9592,-300.2992 191.9049,-270.8125 194.2031,-252.1917"></path>
</g>
<!-- 8&#45;&gt;6 -->
<g id="edge13" class="edge">
<title>8-&gt;6</title>
<path fill="none" stroke="#5a5241" d="M140.9936,-359.8314C140.9936,-349 140.9936,-335.2876 140.9936,-324.4133"></path>
</g>
<!-- 9 -->
<g id="node14" class="node">
<title>9</title>
<polygon fill="none" stroke="#5a5241" points="15.2252,-360 46.7621,-360 57.9936,-396 3.9936,-396 15.2252,-360"></polygon>
<text text-anchor="middle" x="30.9936" y="-373.8" font-family="Courier,monospace" font-size="14.00" fill="#000000">9</text>
</g>
<!-- 9&#45;&gt;12 -->
<g id="edge11" class="edge">
<title>9-&gt;12</title>
<path fill="none" stroke="#5a5241" d="M31.1203,-359.7623C31.3126,-332.0633 31.6763,-279.7005 31.868,-252.0896"></path>
</g>
<!-- 3&#45;&gt;4 -->
<g id="edge16" class="edge">
<title>3-&gt;4</title>
<path fill="none" stroke="#5a5241" d="M167.5826,-503.8314C173.2992,-493 180.5363,-479.2876 186.2755,-468.4133"></path>
</g>
<!-- 7&#45;&gt;10 -->
<g id="edge7" class="edge">
<title>7-&gt;10</title>
<path fill="none" stroke="#5a5241" d="M87.8188,-431.9839C90.9171,-402.0375 97.5942,-340.1487 104.9936,-288 106.676,-276.1433 108.8825,-262.8766 110.6897,-252.4602"></path>
</g>
<!-- 7&#45;&gt;8 -->
<g id="edge18" class="edge">
<title>7-&gt;8</title>
<path fill="none" stroke="#5a5241" d="M93.9201,-431.8314C99.785,-423.0309 107.7945,-412.3285 115.6051,-402.7917"></path>
<ellipse fill="none" stroke="#5a5241" cx="118.3823" cy="-399.4787" rx="4" ry="4"></ellipse>
</g>
<!-- 7&#45;&gt;8 -->
<g id="edge19" class="edge">
<title>7-&gt;8</title>
<path fill="none" stroke="#5a5241" d="M102.9824,-435.0816C111.2112,-425.8235 120.7669,-413.6933 128.3603,-402.9969"></path>
<ellipse fill="none" stroke="#5a5241" cx="130.7627" cy="-399.5126" rx="4" ry="4"></ellipse>
</g>
<!-- 7&#45;&gt;9 -->
<g id="edge20" class="edge">
<title>7-&gt;9</title>
<path fill="none" stroke="#5a5241" d="M69.0049,-435.0816C58.9736,-423.7955 46.9704,-408.2414 38.954,-396.2195"></path>
</g>
<!-- 7&#45;&gt;9 -->
<g id="edge21" class="edge">
<title>7-&gt;9</title>
<path fill="none" stroke="#5a5241" d="M78.0672,-431.8314C70.8488,-421 60.3819,-407.2876 51.0353,-396.4133"></path>
</g>
</g>
</svg>
