<!--?xml version="1.0" encoding="UTF-8" standalone="no"?-->

<!-- Generated by graphviz version 2.40.1 (20161225.0304)
 -->
<!-- Title: G Pages: 1 -->
<svg width="206pt" height="188pt" viewBox="0.00 0.00 206.00 188.00" xmlns="http://www.w3.org/2000/svg" xmlns:xlink="http://www.w3.org/1999/xlink">
<g id="graph0" class="graph" transform="scale(1 1) rotate(0) translate(4 184)">
<title>G</title>
<polygon fill="#ffffff" stroke="transparent" points="-4,4 -4,-184 202,-184 202,4 -4,4"></polygon>
<!-- 0 -->
<g id="node1" class="node">
<title>0</title>
<polygon fill="none" stroke="#ffb03b" points="54,-180 0,-180 0,-144 54,-144 54,-180"></polygon>
<text text-anchor="middle" x="27" y="-157.8" font-family="Courier,monospace" font-size="14.00" fill="#000000">0</text>
</g>
<!-- 1 -->
<g id="node2" class="node">
<title>1</title>
<polygon fill="none" stroke="#8a0918" points="126,-180 72,-180 72,-144 126,-144 126,-180"></polygon>
<text text-anchor="middle" x="99" y="-157.8" font-family="Courier,monospace" font-size="14.00" fill="#000000">1</text>
</g>
<!-- 7 -->
<g id="node5" class="node">
<title>7</title>
<polygon fill="none" stroke="#5a5241" points="119.2315,-72 150.7685,-72 162,-108 108,-108 119.2315,-72"></polygon>
<text text-anchor="middle" x="135" y="-85.8" font-family="Courier,monospace" font-size="14.00" fill="#000000">7</text>
</g>
<!-- 1&#45;&gt;7 -->
<g id="edge2" class="edge">
<title>1-&gt;7</title>
<path fill="none" stroke="#5a5241" d="M108.0843,-143.8314C113.5,-133 120.3562,-119.2876 125.7934,-108.4133"></path>
</g>
<!-- 2 -->
<g id="node3" class="node">
<title>2</title>
<polygon fill="none" stroke="#8a0918" points="198,-180 144,-180 144,-144 198,-144 198,-180"></polygon>
<text text-anchor="middle" x="171" y="-157.8" font-family="Courier,monospace" font-size="14.00" fill="#000000">2</text>
</g>
<!-- 2&#45;&gt;7 -->
<g id="edge3" class="edge">
<title>2-&gt;7</title>
<path fill="none" stroke="#5a5241" d="M161.9157,-143.8314C157.6424,-135.2848 152.4722,-124.9443 147.8099,-115.6198"></path>
<ellipse fill="none" stroke="#5a5241" cx="145.9955" cy="-111.991" rx="4" ry="4"></ellipse>
</g>
<!-- 15 -->
<g id="node4" class="node">
<title>15</title>
<polygon fill="none" stroke="#accfcc" points="162,-36 108,-36 108,0 162,0 162,-36"></polygon>
<text text-anchor="middle" x="135" y="-13.8" font-family="Courier,monospace" font-size="14.00" fill="#000000">15</text>
</g>
<!-- 7&#45;&gt;15 -->
<g id="edge1" class="edge">
<title>7-&gt;15</title>
<path fill="none" stroke="#5a5241" d="M135,-71.8314C135,-63.5386 135,-53.557 135,-44.4533"></path>
<ellipse fill="none" stroke="#5a5241" cx="135" cy="-40.4133" rx="4" ry="4"></ellipse>
</g>
</g>
</svg>
