<!--?xml version="1.0" encoding="UTF-8" standalone="no"?-->

<!-- Generated by graphviz version 2.40.1 (20161225.0304)
 -->
<!-- Title: G Pages: 1 -->
<svg width="278pt" height="260pt" viewBox="0.00 0.00 278.00 260.00" xmlns="http://www.w3.org/2000/svg" xmlns:xlink="http://www.w3.org/1999/xlink">
<g id="graph0" class="graph" transform="scale(1 1) rotate(0) translate(4 256)">
<title>G</title>
<polygon fill="#ffffff" stroke="transparent" points="-4,4 -4,-256 274,-256 274,4 -4,4"></polygon>
<!-- 0 -->
<g id="node1" class="node">
<title>0</title>
<polygon fill="none" stroke="#ffb03b" points="54,-252 0,-252 0,-216 54,-216 54,-252"></polygon>
<text text-anchor="middle" x="27" y="-229.8" font-family="Courier,monospace" font-size="14.00" fill="#000000">0</text>
</g>
<!-- 1 -->
<g id="node2" class="node">
<title>1</title>
<polygon fill="none" stroke="#8a0918" points="126,-252 72,-252 72,-216 126,-216 126,-252"></polygon>
<text text-anchor="middle" x="99" y="-229.8" font-family="Courier,monospace" font-size="14.00" fill="#000000">1</text>
</g>
<!-- 4 -->
<g id="node7" class="node">
<title>4</title>
<polygon fill="none" stroke="#5a5241" points="155.2315,-144 186.7685,-144 198,-180 144,-180 155.2315,-144"></polygon>
<text text-anchor="middle" x="171" y="-157.8" font-family="Courier,monospace" font-size="14.00" fill="#000000">4</text>
</g>
<!-- 1&#45;&gt;4 -->
<g id="edge3" class="edge">
<title>1-&gt;4</title>
<path fill="none" stroke="#5a5241" d="M117.1686,-215.8314C128,-205 141.7124,-191.2876 152.5867,-180.4133"></path>
</g>
<!-- 2 -->
<g id="node3" class="node">
<title>2</title>
<polygon fill="none" stroke="#8a0918" points="270,-252 216,-252 216,-216 270,-216 270,-252"></polygon>
<text text-anchor="middle" x="243" y="-229.8" font-family="Courier,monospace" font-size="14.00" fill="#000000">2</text>
</g>
<!-- 6 -->
<g id="node8" class="node">
<title>6</title>
<polygon fill="none" stroke="#5a5241" points="191.2315,-72 222.7685,-72 234,-108 180,-108 191.2315,-72"></polygon>
<text text-anchor="middle" x="207" y="-85.8" font-family="Courier,monospace" font-size="14.00" fill="#000000">6</text>
</g>
<!-- 2&#45;&gt;6 -->
<g id="edge6" class="edge">
<title>2-&gt;6</title>
<path fill="none" stroke="#5a5241" d="M238.4406,-215.7623C231.5158,-188.0633 218.4251,-135.7005 211.5224,-108.0896"></path>
</g>
<!-- 3 -->
<g id="node4" class="node">
<title>3</title>
<polygon fill="none" stroke="#8a0918" points="198,-252 144,-252 144,-216 198,-216 198,-252"></polygon>
<text text-anchor="middle" x="171" y="-229.8" font-family="Courier,monospace" font-size="14.00" fill="#000000">3</text>
</g>
<!-- 3&#45;&gt;4 -->
<g id="edge4" class="edge">
<title>3-&gt;4</title>
<path fill="none" stroke="#5a5241" d="M171,-215.8314C171,-205 171,-191.2876 171,-180.4133"></path>
</g>
<!-- 8 -->
<g id="node5" class="node">
<title>8</title>
<polygon fill="none" stroke="#accfcc" points="198,-36 144,-36 144,0 198,0 198,-36"></polygon>
<text text-anchor="middle" x="171" y="-13.8" font-family="Courier,monospace" font-size="14.00" fill="#000000">8</text>
</g>
<!-- 9 -->
<g id="node6" class="node">
<title>9</title>
<polygon fill="none" stroke="#accfcc" points="270,-36 216,-36 216,0 270,0 270,-36"></polygon>
<text text-anchor="middle" x="243" y="-13.8" font-family="Courier,monospace" font-size="14.00" fill="#000000">9</text>
</g>
<!-- 4&#45;&gt;6 -->
<g id="edge5" class="edge">
<title>4-&gt;6</title>
<path fill="none" stroke="#5a5241" d="M180.0843,-143.8314C185.5,-133 192.3562,-119.2876 197.7934,-108.4133"></path>
</g>
<!-- 6&#45;&gt;8 -->
<g id="edge1" class="edge">
<title>6-&gt;8</title>
<path fill="none" stroke="#5a5241" d="M197.9157,-71.8314C192.5,-61 185.6438,-47.2876 180.2066,-36.4133"></path>
</g>
<!-- 6&#45;&gt;9 -->
<g id="edge2" class="edge">
<title>6-&gt;9</title>
<path fill="none" stroke="#5a5241" d="M216.0843,-71.8314C221.5,-61 228.3562,-47.2876 233.7934,-36.4133"></path>
</g>
</g>
</svg>
