<!--?xml version="1.0" encoding="UTF-8" standalone="no"?-->

<!-- Generated by graphviz version 2.40.1 (20161225.0304)
 -->
<!-- Title: G Pages: 1 -->
<svg width="288pt" height="260pt" viewBox="0.00 0.00 288.00 260.00" xmlns="http://www.w3.org/2000/svg" xmlns:xlink="http://www.w3.org/1999/xlink">
<g id="graph0" class="graph" transform="scale(1 1) rotate(0) translate(4 256)">
<title>G</title>
<polygon fill="#ffffff" stroke="transparent" points="-4,4 -4,-256 284,-256 284,4 -4,4"></polygon>
<!-- 0 -->
<g id="node1" class="node">
<title>0</title>
<polygon fill="none" stroke="#ffb03b" points="54,-252 0,-252 0,-216 54,-216 54,-252"></polygon>
<text text-anchor="middle" x="27" y="-229.8" font-family="Courier,monospace" font-size="14.00" fill="#000000">0</text>
</g>
<!-- 1 -->
<g id="node2" class="node">
<title>1</title>
<polygon fill="none" stroke="#8a0918" points="280,-252 226,-252 226,-216 280,-216 280,-252"></polygon>
<text text-anchor="middle" x="253" y="-229.8" font-family="Courier,monospace" font-size="14.00" fill="#000000">1</text>
</g>
<!-- 4 -->
<g id="node7" class="node">
<title>4</title>
<polygon fill="none" stroke="#5a5241" points="165.2315,-144 196.7685,-144 208,-180 154,-180 165.2315,-144"></polygon>
<text text-anchor="middle" x="181" y="-157.8" font-family="Courier,monospace" font-size="14.00" fill="#000000">4</text>
</g>
<!-- 1&#45;&gt;4 -->
<g id="edge3" class="edge">
<title>1-&gt;4</title>
<path fill="none" stroke="#5a5241" d="M234.8314,-215.8314C224,-205 210.2876,-191.2876 199.4133,-180.4133"></path>
</g>
<!-- 5 -->
<g id="node8" class="node">
<title>5</title>
<polygon fill="none" stroke="#5a5241" points="237.2315,-144 268.7685,-144 280,-180 226,-180 237.2315,-144"></polygon>
<text text-anchor="middle" x="253" y="-157.8" font-family="Courier,monospace" font-size="14.00" fill="#000000">5</text>
</g>
<!-- 1&#45;&gt;5 -->
<g id="edge6" class="edge">
<title>1-&gt;5</title>
<path fill="none" stroke="#5a5241" d="M253,-215.8314C253,-205 253,-191.2876 253,-180.4133"></path>
</g>
<!-- 2 -->
<g id="node3" class="node">
<title>2</title>
<polygon fill="none" stroke="#8a0918" points="126,-252 72,-252 72,-216 126,-216 126,-252"></polygon>
<text text-anchor="middle" x="99" y="-229.8" font-family="Courier,monospace" font-size="14.00" fill="#000000">2</text>
</g>
<!-- 6 -->
<g id="node9" class="node">
<title>6</title>
<polygon fill="none" stroke="#5a5241" points="118.2315,-72 149.7685,-72 161,-108 107,-108 118.2315,-72"></polygon>
<text text-anchor="middle" x="134" y="-85.8" font-family="Courier,monospace" font-size="14.00" fill="#000000">6</text>
</g>
<!-- 2&#45;&gt;6 -->
<g id="edge8" class="edge">
<title>2-&gt;6</title>
<path fill="none" stroke="#5a5241" d="M100.3206,-215.8073C101.9571,-197.4387 105.3803,-168.3766 112,-144 115.3427,-131.6906 120.7244,-118.4168 125.3282,-108.11"></path>
</g>
<!-- 7 -->
<g id="node10" class="node">
<title>7</title>
<polygon fill="none" stroke="#5a5241" points="213.2315,-72 244.7685,-72 256,-108 202,-108 213.2315,-72"></polygon>
<text text-anchor="middle" x="229" y="-85.8" font-family="Courier,monospace" font-size="14.00" fill="#000000">7</text>
</g>
<!-- 2&#45;&gt;7 -->
<g id="edge9" class="edge">
<title>2-&gt;7</title>
<path fill="none" stroke="#5a5241" d="M105.0675,-215.748C112.236,-196.2667 125.6809,-165.3296 145,-144 161.5265,-125.7536 185.5639,-111.1347 203.6949,-101.733"></path>
</g>
<!-- 3 -->
<g id="node4" class="node">
<title>3</title>
<polygon fill="none" stroke="#8a0918" points="208,-252 154,-252 154,-216 208,-216 208,-252"></polygon>
<text text-anchor="middle" x="181" y="-229.8" font-family="Courier,monospace" font-size="14.00" fill="#000000">3</text>
</g>
<!-- 3&#45;&gt;4 -->
<g id="edge4" class="edge">
<title>3-&gt;4</title>
<path fill="none" stroke="#5a5241" d="M181,-215.8314C181,-205 181,-191.2876 181,-180.4133"></path>
</g>
<!-- 3&#45;&gt;5 -->
<g id="edge5" class="edge">
<title>3-&gt;5</title>
<path fill="none" stroke="#5a5241" d="M199.1686,-215.8314C210,-205 223.7124,-191.2876 234.5867,-180.4133"></path>
</g>
<!-- 8 -->
<g id="node5" class="node">
<title>8</title>
<polygon fill="none" stroke="#accfcc" points="161,-36 107,-36 107,0 161,0 161,-36"></polygon>
<text text-anchor="middle" x="134" y="-13.8" font-family="Courier,monospace" font-size="14.00" fill="#000000">8</text>
</g>
<!-- 9 -->
<g id="node6" class="node">
<title>9</title>
<polygon fill="none" stroke="#accfcc" points="256,-36 202,-36 202,0 256,0 256,-36"></polygon>
<text text-anchor="middle" x="229" y="-13.8" font-family="Courier,monospace" font-size="14.00" fill="#000000">9</text>
</g>
<!-- 4&#45;&gt;6 -->
<g id="edge7" class="edge">
<title>4-&gt;6</title>
<path fill="none" stroke="#5a5241" d="M169.1399,-143.8314C162.0695,-133 153.1183,-119.2876 146.0198,-108.4133"></path>
</g>
<!-- 5&#45;&gt;7 -->
<g id="edge10" class="edge">
<title>5-&gt;7</title>
<path fill="none" stroke="#5a5241" d="M246.9438,-143.8314C243.3333,-133 238.7625,-119.2876 235.1378,-108.4133"></path>
</g>
<!-- 6&#45;&gt;8 -->
<g id="edge1" class="edge">
<title>6-&gt;8</title>
<path fill="none" stroke="#5a5241" d="M134,-71.8314C134,-61 134,-47.2876 134,-36.4133"></path>
</g>
<!-- 7&#45;&gt;9 -->
<g id="edge2" class="edge">
<title>7-&gt;9</title>
<path fill="none" stroke="#5a5241" d="M229,-71.8314C229,-61 229,-47.2876 229,-36.4133"></path>
</g>
</g>
</svg>
