<!--?xml version="1.0" encoding="UTF-8" standalone="no"?-->

<!-- Generated by graphviz version 2.40.1 (20161225.0304)
 -->
<!-- Title: G Pages: 1 -->
<svg width="278pt" height="188pt" viewBox="0.00 0.00 278.00 188.00" xmlns="http://www.w3.org/2000/svg" xmlns:xlink="http://www.w3.org/1999/xlink">
<g id="graph0" class="graph" transform="scale(1 1) rotate(0) translate(4 184)">
<title>G</title>
<polygon fill="#ffffff" stroke="transparent" points="-4,4 -4,-184 274,-184 274,4 -4,4"></polygon>
<!-- 0 -->
<g id="node1" class="node">
<title>0</title>
<polygon fill="none" stroke="#ffb03b" points="54,-180 0,-180 0,-144 54,-144 54,-180"></polygon>
<text text-anchor="middle" x="27" y="-157.8" font-family="Courier,monospace" font-size="14.00" fill="#000000">0</text>
</g>
<!-- 1 -->
<g id="node2" class="node">
<title>1</title>
<polygon fill="none" stroke="#8a0918" points="126,-180 72,-180 72,-144 126,-144 126,-180"></polygon>
<text text-anchor="middle" x="99" y="-157.8" font-family="Courier,monospace" font-size="14.00" fill="#000000">1</text>
</g>
<!-- 2 -->
<g id="node3" class="node">
<title>2</title>
<polygon fill="none" stroke="#8a0918" points="198,-180 144,-180 144,-144 198,-144 198,-180"></polygon>
<text text-anchor="middle" x="171" y="-157.8" font-family="Courier,monospace" font-size="14.00" fill="#000000">2</text>
</g>
<!-- 4 -->
<g id="node6" class="node">
<title>4</title>
<polygon fill="none" stroke="#5a5241" points="191.2315,-72 222.7685,-72 234,-108 180,-108 191.2315,-72"></polygon>
<text text-anchor="middle" x="207" y="-85.8" font-family="Courier,monospace" font-size="14.00" fill="#000000">4</text>
</g>
<!-- 2&#45;&gt;4 -->
<g id="edge2" class="edge">
<title>2-&gt;4</title>
<path fill="none" stroke="#5a5241" d="M180.0843,-143.8314C185.5,-133 192.3562,-119.2876 197.7934,-108.4133"></path>
</g>
<!-- 3 -->
<g id="node4" class="node">
<title>3</title>
<polygon fill="none" stroke="#8a0918" points="270,-180 216,-180 216,-144 270,-144 270,-180"></polygon>
<text text-anchor="middle" x="243" y="-157.8" font-family="Courier,monospace" font-size="14.00" fill="#000000">3</text>
</g>
<!-- 3&#45;&gt;4 -->
<g id="edge3" class="edge">
<title>3-&gt;4</title>
<path fill="none" stroke="#5a5241" d="M233.9157,-143.8314C228.5,-133 221.6438,-119.2876 216.2066,-108.4133"></path>
</g>
<!-- 11 -->
<g id="node5" class="node">
<title>11</title>
<polygon fill="none" stroke="#accfcc" points="234,-36 180,-36 180,0 234,0 234,-36"></polygon>
<text text-anchor="middle" x="207" y="-13.8" font-family="Courier,monospace" font-size="14.00" fill="#000000">11</text>
</g>
<!-- 4&#45;&gt;11 -->
<g id="edge1" class="edge">
<title>4-&gt;11</title>
<path fill="none" stroke="#5a5241" d="M207,-71.8314C207,-61 207,-47.2876 207,-36.4133"></path>
</g>
</g>
</svg>
