<!--?xml version="1.0" encoding="UTF-8" standalone="no"?-->

<!-- Generated by graphviz version 2.40.1 (20161225.0304)
 -->
<!-- Title: G Pages: 1 -->
<svg width="278pt" height="260pt" viewBox="0.00 0.00 278.00 260.00" xmlns="http://www.w3.org/2000/svg" xmlns:xlink="http://www.w3.org/1999/xlink">
<g id="graph0" class="graph" transform="scale(1 1) rotate(0) translate(4 256)">
<title>G</title>
<polygon fill="#ffffff" stroke="transparent" points="-4,4 -4,-256 274,-256 274,4 -4,4"></polygon>
<!-- 0 -->
<g id="node1" class="node">
<title>0</title>
<polygon fill="none" stroke="#ffb03b" points="54,-252 0,-252 0,-216 54,-216 54,-252"></polygon>
<text text-anchor="middle" x="27" y="-229.8" font-family="Courier,monospace" font-size="14.00" fill="#000000">0</text>
</g>
<!-- 1 -->
<g id="node2" class="node">
<title>1</title>
<polygon fill="none" stroke="#8a0918" points="126,-252 72,-252 72,-216 126,-216 126,-252"></polygon>
<text text-anchor="middle" x="99" y="-229.8" font-family="Courier,monospace" font-size="14.00" fill="#000000">1</text>
</g>
<!-- 5 -->
<g id="node7" class="node">
<title>5</title>
<polygon fill="none" stroke="#5a5241" points="119.2315,-144 150.7685,-144 162,-180 108,-180 119.2315,-144"></polygon>
<text text-anchor="middle" x="135" y="-157.8" font-family="Courier,monospace" font-size="14.00" fill="#000000">5</text>
</g>
<!-- 1&#45;&gt;5 -->
<g id="edge4" class="edge">
<title>1-&gt;5</title>
<path fill="none" stroke="#5a5241" d="M108.0843,-215.8314C112.3576,-207.2848 117.5278,-196.9443 122.1901,-187.6198"></path>
<ellipse fill="none" stroke="#5a5241" cx="124.0045" cy="-183.991" rx="4" ry="4"></ellipse>
</g>
<!-- 2 -->
<g id="node3" class="node">
<title>2</title>
<polygon fill="none" stroke="#8a0918" points="198,-252 144,-252 144,-216 198,-216 198,-252"></polygon>
<text text-anchor="middle" x="171" y="-229.8" font-family="Courier,monospace" font-size="14.00" fill="#000000">2</text>
</g>
<!-- 4 -->
<g id="node6" class="node">
<title>4</title>
<polygon fill="none" stroke="#5a5241" points="191.2315,-144 222.7685,-144 234,-180 180,-180 191.2315,-144"></polygon>
<text text-anchor="middle" x="207" y="-157.8" font-family="Courier,monospace" font-size="14.00" fill="#000000">4</text>
</g>
<!-- 2&#45;&gt;4 -->
<g id="edge2" class="edge">
<title>2-&gt;4</title>
<path fill="none" stroke="#5a5241" d="M180.0843,-215.8314C185.5,-205 192.3562,-191.2876 197.7934,-180.4133"></path>
</g>
<!-- 2&#45;&gt;5 -->
<g id="edge5" class="edge">
<title>2-&gt;5</title>
<path fill="none" stroke="#5a5241" d="M161.9157,-215.8314C156.5,-205 149.6438,-191.2876 144.2066,-180.4133"></path>
</g>
<!-- 3 -->
<g id="node4" class="node">
<title>3</title>
<polygon fill="none" stroke="#8a0918" points="270,-252 216,-252 216,-216 270,-216 270,-252"></polygon>
<text text-anchor="middle" x="243" y="-229.8" font-family="Courier,monospace" font-size="14.00" fill="#000000">3</text>
</g>
<!-- 3&#45;&gt;4 -->
<g id="edge3" class="edge">
<title>3-&gt;4</title>
<path fill="none" stroke="#5a5241" d="M233.9157,-215.8314C228.5,-205 221.6438,-191.2876 216.2066,-180.4133"></path>
</g>
<!-- 11 -->
<g id="node5" class="node">
<title>11</title>
<polygon fill="none" stroke="#accfcc" points="234,-108 180,-108 180,-72 234,-72 234,-108"></polygon>
<text text-anchor="middle" x="207" y="-85.8" font-family="Courier,monospace" font-size="14.00" fill="#000000">11</text>
</g>
<!-- 4&#45;&gt;11 -->
<g id="edge1" class="edge">
<title>4-&gt;11</title>
<path fill="none" stroke="#5a5241" d="M207,-143.8314C207,-133 207,-119.2876 207,-108.4133"></path>
</g>
<!-- 8 -->
<g id="node9" class="node">
<title>8</title>
<polygon fill="none" stroke="#5a5241" points="119.2315,-72 150.7685,-72 162,-108 108,-108 119.2315,-72"></polygon>
<text text-anchor="middle" x="135" y="-85.8" font-family="Courier,monospace" font-size="14.00" fill="#000000">8</text>
</g>
<!-- 4&#45;&gt;8 -->
<g id="edge9" class="edge">
<title>4-&gt;8</title>
<path fill="none" stroke="#5a5241" d="M190.6621,-145.6621C179.4597,-134.4597 164.5932,-119.5932 153.0423,-108.0423"></path>
</g>
<!-- 7 -->
<g id="node8" class="node">
<title>7</title>
<polygon fill="none" stroke="#5a5241" points="47.2315,-72 78.7685,-72 90,-108 36,-108 47.2315,-72"></polygon>
<text text-anchor="middle" x="63" y="-85.8" font-family="Courier,monospace" font-size="14.00" fill="#000000">7</text>
</g>
<!-- 5&#45;&gt;7 -->
<g id="edge7" class="edge">
<title>5-&gt;7</title>
<path fill="none" stroke="#5a5241" d="M118.6621,-145.6621C107.4597,-134.4597 92.5932,-119.5932 81.0423,-108.0423"></path>
</g>
<!-- 5&#45;&gt;8 -->
<g id="edge8" class="edge">
<title>5-&gt;8</title>
<path fill="none" stroke="#5a5241" d="M135,-143.8314C135,-133 135,-119.2876 135,-108.4133"></path>
</g>
<!-- 9 -->
<g id="node10" class="node">
<title>9</title>
<polygon fill="none" stroke="#5a5241" points="45.2315,0 76.7685,0 88,-36 34,-36 45.2315,0"></polygon>
<text text-anchor="middle" x="61" y="-13.8" font-family="Courier,monospace" font-size="14.00" fill="#000000">9</text>
</g>
<!-- 7&#45;&gt;9 -->
<g id="edge10" class="edge">
<title>7-&gt;9</title>
<path fill="none" stroke="#5a5241" d="M62.4953,-71.8314C62.1944,-61 61.8135,-47.2876 61.5115,-36.4133"></path>
</g>
<!-- 10 -->
<g id="node11" class="node">
<title>10</title>
<polygon fill="none" stroke="#5a5241" points="119.3189,0 156.6811,0 169.9873,-36 106.0127,-36 119.3189,0"></polygon>
<text text-anchor="middle" x="138" y="-13.8" font-family="Courier,monospace" font-size="14.00" fill="#000000">10</text>
</g>
<!-- 7&#45;&gt;10 -->
<g id="edge12" class="edge">
<title>7-&gt;10</title>
<path fill="none" stroke="#5a5241" d="M79.6449,-74.0209C91.2969,-62.835 106.8877,-47.8678 119.0228,-36.2181"></path>
</g>
<!-- 8&#45;&gt;9 -->
<g id="edge11" class="edge">
<title>8-&gt;9</title>
<path fill="none" stroke="#5a5241" d="M118.577,-74.0209C107.0804,-62.835 91.6974,-47.8678 79.7241,-36.2181"></path>
</g>
<!-- 8&#45;&gt;10 -->
<g id="edge13" class="edge">
<title>8-&gt;10</title>
<path fill="none" stroke="#5a5241" d="M135.757,-71.8314C136.2083,-61 136.7797,-47.2876 137.2328,-36.4133"></path>
</g>
<!-- 6 -->
<g id="node12" class="node">
<title>6</title>
<polygon fill="none" stroke="#11c066" points="90,-180 36,-180 36,-144 90,-144 90,-180"></polygon>
<text text-anchor="middle" x="63" y="-157.8" font-family="Courier,monospace" font-size="14.00" fill="#000000">6</text>
</g>
<!-- 6&#45;&gt;7 -->
<g id="edge6" class="edge">
<title>6-&gt;7</title>
<path fill="none" stroke="#5a5241" d="M63,-143.8314C63,-133 63,-119.2876 63,-108.4133"></path>
</g>
</g>
</svg>
